<svg id="Layer_2" data-name="Layer 2" xmlns="http://www.w3.org/2000/svg" viewBox="0 0 162.97 128.01"><defs><style>.cls-1{fill:#231f20;}.cls-2{fill:none;stroke:#231f20;stroke-linejoin:round;stroke-width:7px;}</style></defs><polygon class="cls-1" points="36.45 127.92 58.67 127.92 58.67 62.62 47.56 56.2 36.45 62.62 36.45 127.92"/><polygon class="cls-1" points="6.8 127.92 29.02 127.92 29.02 66.84 6.8 79.31 6.8 127.92"/><polygon class="cls-1" points="66.11 128.01 88.33 128.01 88.33 65.51 77.22 73.45 66.11 66.47 66.11 128.01"/><polyline class="cls-1" points="95.3 60.45 95.6 127.92 117.82 127.92 117.82 44.56"/><polyline class="cls-1" points="124.65 40.32 124.96 127.92 147.18 127.92 147.18 23.61"/><polyline class="cls-2" points="149.27 10.2 77.22 63.82 47.56 44.2 1.82 72.09"/><polygon class="cls-1" points="139.4 2.75 162.97 0 153.57 21.79 139.4 2.75"/></svg>